<mxfile host="app.diagrams.net" modified="2024-03-18T08:57:28.782Z" agent="Mozilla/5.0 (Windows NT 10.0; Win64; x64) AppleWebKit/537.36 (KHTML, like Gecko) Chrome/122.0.0.0 Safari/537.36 Edg/122.0.0.0" etag="PTAKId9IlfCPsh6XBKVq" version="24.0.7" type="device">
  <diagram name="Pagina-1" id="0Tp5KuDPUX9IEjLXrzPE">
    <mxGraphModel dx="2950" dy="1432" grid="0" gridSize="10" guides="1" tooltips="1" connect="1" arrows="1" fold="1" page="0" pageScale="1" pageWidth="827" pageHeight="1169" math="0" shadow="0">
      <root>
        <mxCell id="0" />
        <mxCell id="1" parent="0" />
        <mxCell id="72QtoFlMRVsIfOhmQPBF-24" style="edgeStyle=orthogonalEdgeStyle;rounded=0;orthogonalLoop=1;jettySize=auto;html=1;entryX=0;entryY=0.5;entryDx=0;entryDy=0;fontSize=12;startSize=8;endSize=8;" parent="1" source="72QtoFlMRVsIfOhmQPBF-8" target="72QtoFlMRVsIfOhmQPBF-17" edge="1">
          <mxGeometry relative="1" as="geometry" />
        </mxCell>
        <mxCell id="72QtoFlMRVsIfOhmQPBF-25" style="edgeStyle=orthogonalEdgeStyle;rounded=0;orthogonalLoop=1;jettySize=auto;html=1;entryX=0;entryY=0.5;entryDx=0;entryDy=0;fontSize=12;startSize=8;endSize=8;" parent="1" source="72QtoFlMRVsIfOhmQPBF-8" target="72QtoFlMRVsIfOhmQPBF-18" edge="1">
          <mxGeometry relative="1" as="geometry" />
        </mxCell>
        <mxCell id="72QtoFlMRVsIfOhmQPBF-26" style="edgeStyle=orthogonalEdgeStyle;rounded=0;orthogonalLoop=1;jettySize=auto;html=1;fontSize=12;startSize=8;endSize=8;entryX=0;entryY=0.5;entryDx=0;entryDy=0;" parent="1" source="72QtoFlMRVsIfOhmQPBF-8" target="72QtoFlMRVsIfOhmQPBF-19" edge="1">
          <mxGeometry relative="1" as="geometry">
            <mxPoint x="-552" y="79.40000915527344" as="targetPoint" />
          </mxGeometry>
        </mxCell>
        <mxCell id="72QtoFlMRVsIfOhmQPBF-39" value="" style="edgeStyle=none;curved=1;rounded=0;orthogonalLoop=1;jettySize=auto;html=1;fontSize=12;startSize=8;endSize=8;endArrow=doubleBlock;endFill=1;" parent="1" source="72QtoFlMRVsIfOhmQPBF-8" target="72QtoFlMRVsIfOhmQPBF-38" edge="1">
          <mxGeometry relative="1" as="geometry" />
        </mxCell>
        <mxCell id="72QtoFlMRVsIfOhmQPBF-44" style="edgeStyle=none;curved=1;rounded=0;orthogonalLoop=1;jettySize=auto;html=1;fontSize=12;startSize=8;endSize=8;endArrow=doubleBlock;endFill=1;" parent="1" source="72QtoFlMRVsIfOhmQPBF-8" edge="1">
          <mxGeometry relative="1" as="geometry">
            <mxPoint x="-704.3999938964844" y="-61.80000305175781" as="targetPoint" />
          </mxGeometry>
        </mxCell>
        <mxCell id="72QtoFlMRVsIfOhmQPBF-8" value="Cinema" style="rounded=0;whiteSpace=wrap;html=1;" parent="1" vertex="1">
          <mxGeometry x="-612" y="-89" width="120" height="60" as="geometry" />
        </mxCell>
        <mxCell id="72QtoFlMRVsIfOhmQPBF-58" style="edgeStyle=none;curved=1;rounded=0;orthogonalLoop=1;jettySize=auto;html=1;entryX=1;entryY=0.5;entryDx=0;entryDy=0;fontSize=12;startSize=8;endSize=8;" parent="1" source="72QtoFlMRVsIfOhmQPBF-9" target="72QtoFlMRVsIfOhmQPBF-56" edge="1">
          <mxGeometry relative="1" as="geometry" />
        </mxCell>
        <mxCell id="72QtoFlMRVsIfOhmQPBF-67" style="edgeStyle=none;curved=1;rounded=0;orthogonalLoop=1;jettySize=auto;html=1;entryX=0.5;entryY=1;entryDx=0;entryDy=0;fontSize=12;startSize=8;endSize=8;" parent="1" source="72QtoFlMRVsIfOhmQPBF-9" target="72QtoFlMRVsIfOhmQPBF-65" edge="1">
          <mxGeometry relative="1" as="geometry" />
        </mxCell>
        <mxCell id="72QtoFlMRVsIfOhmQPBF-126" style="edgeStyle=orthogonalEdgeStyle;rounded=0;orthogonalLoop=1;jettySize=auto;html=1;fontSize=12;startSize=8;endSize=8;entryX=0;entryY=0.5;entryDx=0;entryDy=0;" parent="1" source="72QtoFlMRVsIfOhmQPBF-9" target="72QtoFlMRVsIfOhmQPBF-120" edge="1">
          <mxGeometry relative="1" as="geometry">
            <mxPoint x="337.9999999999998" y="695.4285496303014" as="targetPoint" />
          </mxGeometry>
        </mxCell>
        <mxCell id="72QtoFlMRVsIfOhmQPBF-128" style="edgeStyle=orthogonalEdgeStyle;rounded=0;orthogonalLoop=1;jettySize=auto;html=1;fontSize=12;startSize=8;endSize=8;entryX=0;entryY=0.5;entryDx=0;entryDy=0;" parent="1" source="72QtoFlMRVsIfOhmQPBF-9" target="72QtoFlMRVsIfOhmQPBF-118" edge="1">
          <mxGeometry relative="1" as="geometry">
            <mxPoint x="337.9999999999998" y="731.9999215262278" as="targetPoint" />
          </mxGeometry>
        </mxCell>
        <mxCell id="72QtoFlMRVsIfOhmQPBF-130" style="edgeStyle=orthogonalEdgeStyle;rounded=0;orthogonalLoop=1;jettySize=auto;html=1;fontSize=12;startSize=8;endSize=8;entryX=0;entryY=0.5;entryDx=0;entryDy=0;" parent="1" source="72QtoFlMRVsIfOhmQPBF-9" target="72QtoFlMRVsIfOhmQPBF-123" edge="1">
          <mxGeometry relative="1" as="geometry">
            <mxPoint x="337.9999999999998" y="775.4285278320312" as="targetPoint" />
          </mxGeometry>
        </mxCell>
        <mxCell id="72QtoFlMRVsIfOhmQPBF-9" value="Review" style="rounded=0;whiteSpace=wrap;html=1;" parent="1" vertex="1">
          <mxGeometry x="278" y="593" width="120" height="57" as="geometry" />
        </mxCell>
        <mxCell id="72QtoFlMRVsIfOhmQPBF-40" style="edgeStyle=none;curved=1;rounded=0;orthogonalLoop=1;jettySize=auto;html=1;entryX=1;entryY=0.5;entryDx=0;entryDy=0;fontSize=12;startSize=8;endSize=8;" parent="1" source="72QtoFlMRVsIfOhmQPBF-10" target="72QtoFlMRVsIfOhmQPBF-38" edge="1">
          <mxGeometry relative="1" as="geometry" />
        </mxCell>
        <mxCell id="72QtoFlMRVsIfOhmQPBF-48" style="edgeStyle=none;curved=1;rounded=0;orthogonalLoop=1;jettySize=auto;html=1;fontSize=12;startSize=8;endSize=8;endArrow=doubleBlock;endFill=1;" parent="1" source="72QtoFlMRVsIfOhmQPBF-10" edge="1">
          <mxGeometry relative="1" as="geometry">
            <mxPoint x="-130" y="27" as="targetPoint" />
          </mxGeometry>
        </mxCell>
        <mxCell id="72QtoFlMRVsIfOhmQPBF-97" style="edgeStyle=orthogonalEdgeStyle;rounded=0;orthogonalLoop=1;jettySize=auto;html=1;fontSize=12;startSize=8;endSize=8;entryX=0;entryY=0.5;entryDx=0;entryDy=0;" parent="1" source="72QtoFlMRVsIfOhmQPBF-10" target="72QtoFlMRVsIfOhmQPBF-78" edge="1">
          <mxGeometry relative="1" as="geometry">
            <mxPoint x="-130" y="-134.28569684709805" as="targetPoint" />
          </mxGeometry>
        </mxCell>
        <mxCell id="72QtoFlMRVsIfOhmQPBF-98" style="edgeStyle=orthogonalEdgeStyle;rounded=0;orthogonalLoop=1;jettySize=auto;html=1;fontSize=12;startSize=8;endSize=8;entryX=0;entryY=0.5;entryDx=0;entryDy=0;" parent="1" source="72QtoFlMRVsIfOhmQPBF-10" target="72QtoFlMRVsIfOhmQPBF-77" edge="1">
          <mxGeometry relative="1" as="geometry">
            <mxPoint x="-130" y="-173" as="targetPoint" />
          </mxGeometry>
        </mxCell>
        <mxCell id="72QtoFlMRVsIfOhmQPBF-99" style="edgeStyle=orthogonalEdgeStyle;rounded=0;orthogonalLoop=1;jettySize=auto;html=1;fontSize=12;startSize=8;endSize=8;entryX=0;entryY=0.5;entryDx=0;entryDy=0;" parent="1" source="72QtoFlMRVsIfOhmQPBF-10" target="72QtoFlMRVsIfOhmQPBF-79" edge="1">
          <mxGeometry relative="1" as="geometry">
            <mxPoint x="-130" y="-205.1428157261439" as="targetPoint" />
          </mxGeometry>
        </mxCell>
        <mxCell id="72QtoFlMRVsIfOhmQPBF-10" value="Theather" style="rounded=0;whiteSpace=wrap;html=1;" parent="1" vertex="1">
          <mxGeometry x="-190" y="-85" width="120" height="60" as="geometry" />
        </mxCell>
        <mxCell id="72QtoFlMRVsIfOhmQPBF-54" style="edgeStyle=none;curved=1;rounded=0;orthogonalLoop=1;jettySize=auto;html=1;entryX=0.5;entryY=1;entryDx=0;entryDy=0;fontSize=12;startSize=8;endSize=8;endArrow=doubleBlock;endFill=1;" parent="1" source="72QtoFlMRVsIfOhmQPBF-11" target="72QtoFlMRVsIfOhmQPBF-52" edge="1">
          <mxGeometry relative="1" as="geometry" />
        </mxCell>
        <mxCell id="72QtoFlMRVsIfOhmQPBF-57" value="" style="edgeStyle=none;curved=1;rounded=0;orthogonalLoop=1;jettySize=auto;html=1;fontSize=12;startSize=8;endSize=8;endArrow=doubleBlock;endFill=1;" parent="1" source="72QtoFlMRVsIfOhmQPBF-11" target="72QtoFlMRVsIfOhmQPBF-56" edge="1">
          <mxGeometry relative="1" as="geometry" />
        </mxCell>
        <mxCell id="72QtoFlMRVsIfOhmQPBF-114" style="edgeStyle=orthogonalEdgeStyle;rounded=0;orthogonalLoop=1;jettySize=auto;html=1;fontSize=12;startSize=8;endSize=8;entryX=0;entryY=0.5;entryDx=0;entryDy=0;" parent="1" source="72QtoFlMRVsIfOhmQPBF-11" target="72QtoFlMRVsIfOhmQPBF-108" edge="1">
          <mxGeometry relative="1" as="geometry">
            <mxPoint x="-123" y="699.9999302455358" as="targetPoint" />
          </mxGeometry>
        </mxCell>
        <mxCell id="72QtoFlMRVsIfOhmQPBF-115" style="edgeStyle=orthogonalEdgeStyle;rounded=0;orthogonalLoop=1;jettySize=auto;html=1;fontSize=12;startSize=8;endSize=8;entryX=0;entryY=0.5;entryDx=0;entryDy=0;" parent="1" source="72QtoFlMRVsIfOhmQPBF-11" target="72QtoFlMRVsIfOhmQPBF-106" edge="1">
          <mxGeometry relative="1" as="geometry">
            <mxPoint x="-123" y="738.8570905412948" as="targetPoint" />
          </mxGeometry>
        </mxCell>
        <mxCell id="72QtoFlMRVsIfOhmQPBF-116" style="edgeStyle=orthogonalEdgeStyle;rounded=0;orthogonalLoop=1;jettySize=auto;html=1;fontSize=12;startSize=8;endSize=8;entryX=0;entryY=0.5;entryDx=0;entryDy=0;" parent="1" source="72QtoFlMRVsIfOhmQPBF-11" target="72QtoFlMRVsIfOhmQPBF-107" edge="1">
          <mxGeometry relative="1" as="geometry">
            <mxPoint x="-123" y="766.285635811942" as="targetPoint" />
          </mxGeometry>
        </mxCell>
        <mxCell id="72QtoFlMRVsIfOhmQPBF-117" style="edgeStyle=orthogonalEdgeStyle;rounded=0;orthogonalLoop=1;jettySize=auto;html=1;fontSize=12;startSize=8;endSize=8;entryX=0;entryY=0.5;entryDx=0;entryDy=0;" parent="1" source="72QtoFlMRVsIfOhmQPBF-11" target="72QtoFlMRVsIfOhmQPBF-112" edge="1">
          <mxGeometry relative="1" as="geometry">
            <mxPoint x="-123" y="807.4285191127233" as="targetPoint" />
          </mxGeometry>
        </mxCell>
        <mxCell id="72QtoFlMRVsIfOhmQPBF-11" value="Movie" style="rounded=0;whiteSpace=wrap;html=1;" parent="1" vertex="1">
          <mxGeometry x="-183" y="591" width="120" height="59" as="geometry" />
        </mxCell>
        <mxCell id="72QtoFlMRVsIfOhmQPBF-47" value="" style="edgeStyle=none;curved=1;rounded=0;orthogonalLoop=1;jettySize=auto;html=1;fontSize=12;startSize=8;endSize=8;" parent="1" source="72QtoFlMRVsIfOhmQPBF-12" target="72QtoFlMRVsIfOhmQPBF-46" edge="1">
          <mxGeometry relative="1" as="geometry" />
        </mxCell>
        <mxCell id="72QtoFlMRVsIfOhmQPBF-53" value="" style="edgeStyle=none;curved=1;rounded=0;orthogonalLoop=1;jettySize=auto;html=1;fontSize=12;startSize=8;endSize=8;" parent="1" source="72QtoFlMRVsIfOhmQPBF-12" target="72QtoFlMRVsIfOhmQPBF-52" edge="1">
          <mxGeometry relative="1" as="geometry" />
        </mxCell>
        <mxCell id="72QtoFlMRVsIfOhmQPBF-61" style="edgeStyle=none;curved=1;rounded=0;orthogonalLoop=1;jettySize=auto;html=1;entryX=0;entryY=0.5;entryDx=0;entryDy=0;fontSize=12;startSize=8;endSize=8;endArrow=doubleBlock;endFill=1;" parent="1" source="72QtoFlMRVsIfOhmQPBF-12" target="72QtoFlMRVsIfOhmQPBF-59" edge="1">
          <mxGeometry relative="1" as="geometry" />
        </mxCell>
        <mxCell id="72QtoFlMRVsIfOhmQPBF-104" style="edgeStyle=orthogonalEdgeStyle;rounded=0;orthogonalLoop=1;jettySize=auto;html=1;entryX=1;entryY=0.5;entryDx=0;entryDy=0;fontSize=12;startSize=8;endSize=8;" parent="1" source="72QtoFlMRVsIfOhmQPBF-12" target="72QtoFlMRVsIfOhmQPBF-102" edge="1">
          <mxGeometry relative="1" as="geometry" />
        </mxCell>
        <mxCell id="72QtoFlMRVsIfOhmQPBF-105" style="edgeStyle=orthogonalEdgeStyle;rounded=0;orthogonalLoop=1;jettySize=auto;html=1;entryX=1;entryY=0.5;entryDx=0;entryDy=0;fontSize=12;startSize=8;endSize=8;" parent="1" source="72QtoFlMRVsIfOhmQPBF-12" target="72QtoFlMRVsIfOhmQPBF-100" edge="1">
          <mxGeometry relative="1" as="geometry" />
        </mxCell>
        <mxCell id="72QtoFlMRVsIfOhmQPBF-12" value="Showtime" style="rounded=0;whiteSpace=wrap;html=1;" parent="1" vertex="1">
          <mxGeometry x="-187" y="158" width="120" height="60" as="geometry" />
        </mxCell>
        <mxCell id="72QtoFlMRVsIfOhmQPBF-60" value="" style="edgeStyle=none;curved=1;rounded=0;orthogonalLoop=1;jettySize=auto;html=1;fontSize=12;startSize=8;endSize=8;" parent="1" source="72QtoFlMRVsIfOhmQPBF-13" target="72QtoFlMRVsIfOhmQPBF-59" edge="1">
          <mxGeometry relative="1" as="geometry" />
        </mxCell>
        <mxCell id="72QtoFlMRVsIfOhmQPBF-71" style="edgeStyle=none;curved=1;rounded=0;orthogonalLoop=1;jettySize=auto;html=1;fontSize=12;startSize=8;endSize=8;" parent="1" source="72QtoFlMRVsIfOhmQPBF-13" target="72QtoFlMRVsIfOhmQPBF-69" edge="1">
          <mxGeometry relative="1" as="geometry" />
        </mxCell>
        <mxCell id="72QtoFlMRVsIfOhmQPBF-147" style="edgeStyle=orthogonalEdgeStyle;rounded=0;orthogonalLoop=1;jettySize=auto;html=1;entryX=0;entryY=0.5;entryDx=0;entryDy=0;fontSize=12;startSize=8;endSize=8;" parent="1" source="72QtoFlMRVsIfOhmQPBF-13" target="72QtoFlMRVsIfOhmQPBF-146" edge="1">
          <mxGeometry relative="1" as="geometry" />
        </mxCell>
        <mxCell id="72QtoFlMRVsIfOhmQPBF-148" style="edgeStyle=orthogonalEdgeStyle;rounded=0;orthogonalLoop=1;jettySize=auto;html=1;entryX=0;entryY=0.5;entryDx=0;entryDy=0;fontSize=12;startSize=8;endSize=8;" parent="1" source="72QtoFlMRVsIfOhmQPBF-13" target="72QtoFlMRVsIfOhmQPBF-145" edge="1">
          <mxGeometry relative="1" as="geometry" />
        </mxCell>
        <mxCell id="72QtoFlMRVsIfOhmQPBF-13" value="Ticket" style="rounded=0;whiteSpace=wrap;html=1;" parent="1" vertex="1">
          <mxGeometry x="275" y="161" width="120" height="60" as="geometry" />
        </mxCell>
        <mxCell id="72QtoFlMRVsIfOhmQPBF-66" value="" style="edgeStyle=none;curved=1;rounded=0;orthogonalLoop=1;jettySize=auto;html=1;fontSize=12;startSize=8;endSize=8;endArrow=doubleBlock;endFill=1;" parent="1" source="72QtoFlMRVsIfOhmQPBF-14" target="72QtoFlMRVsIfOhmQPBF-65" edge="1">
          <mxGeometry relative="1" as="geometry" />
        </mxCell>
        <mxCell id="72QtoFlMRVsIfOhmQPBF-70" style="edgeStyle=none;curved=1;rounded=0;orthogonalLoop=1;jettySize=auto;html=1;fontSize=12;startSize=8;endSize=8;endArrow=doubleBlock;endFill=1;" parent="1" source="72QtoFlMRVsIfOhmQPBF-14" target="72QtoFlMRVsIfOhmQPBF-69" edge="1">
          <mxGeometry relative="1" as="geometry" />
        </mxCell>
        <mxCell id="72QtoFlMRVsIfOhmQPBF-137" style="edgeStyle=none;curved=1;rounded=0;orthogonalLoop=1;jettySize=auto;html=1;entryX=0;entryY=0.5;entryDx=0;entryDy=0;fontSize=12;startSize=8;endSize=8;" parent="1" source="72QtoFlMRVsIfOhmQPBF-14" target="72QtoFlMRVsIfOhmQPBF-134" edge="1">
          <mxGeometry relative="1" as="geometry" />
        </mxCell>
        <mxCell id="72QtoFlMRVsIfOhmQPBF-138" style="edgeStyle=none;curved=1;rounded=0;orthogonalLoop=1;jettySize=auto;html=1;entryX=0;entryY=0.5;entryDx=0;entryDy=0;fontSize=12;startSize=8;endSize=8;" parent="1" source="72QtoFlMRVsIfOhmQPBF-14" target="72QtoFlMRVsIfOhmQPBF-135" edge="1">
          <mxGeometry relative="1" as="geometry" />
        </mxCell>
        <mxCell id="72QtoFlMRVsIfOhmQPBF-139" style="edgeStyle=none;curved=1;rounded=0;orthogonalLoop=1;jettySize=auto;html=1;entryX=0;entryY=0.5;entryDx=0;entryDy=0;fontSize=12;startSize=8;endSize=8;exitX=1;exitY=0.75;exitDx=0;exitDy=0;" parent="1" source="72QtoFlMRVsIfOhmQPBF-14" target="72QtoFlMRVsIfOhmQPBF-136" edge="1">
          <mxGeometry relative="1" as="geometry" />
        </mxCell>
        <mxCell id="72QtoFlMRVsIfOhmQPBF-142" style="edgeStyle=none;curved=1;rounded=0;orthogonalLoop=1;jettySize=auto;html=1;entryX=0;entryY=0.5;entryDx=0;entryDy=0;fontSize=12;startSize=8;endSize=8;" parent="1" source="72QtoFlMRVsIfOhmQPBF-14" target="72QtoFlMRVsIfOhmQPBF-141" edge="1">
          <mxGeometry relative="1" as="geometry" />
        </mxCell>
        <mxCell id="72QtoFlMRVsIfOhmQPBF-14" value="Costumer" style="rounded=0;whiteSpace=wrap;html=1;" parent="1" vertex="1">
          <mxGeometry x="278" y="367" width="120" height="60" as="geometry" />
        </mxCell>
        <mxCell id="72QtoFlMRVsIfOhmQPBF-43" value="" style="edgeStyle=none;curved=1;rounded=0;orthogonalLoop=1;jettySize=auto;html=1;fontSize=12;startSize=8;endSize=8;" parent="1" source="72QtoFlMRVsIfOhmQPBF-16" target="72QtoFlMRVsIfOhmQPBF-42" edge="1">
          <mxGeometry relative="1" as="geometry" />
        </mxCell>
        <mxCell id="72QtoFlMRVsIfOhmQPBF-87" style="edgeStyle=orthogonalEdgeStyle;rounded=0;orthogonalLoop=1;jettySize=auto;html=1;fontSize=12;startSize=8;endSize=8;entryX=0;entryY=0.5;entryDx=0;entryDy=0;" parent="1" source="72QtoFlMRVsIfOhmQPBF-16" target="72QtoFlMRVsIfOhmQPBF-81" edge="1">
          <mxGeometry relative="1" as="geometry">
            <mxPoint x="-909" y="36.00003487723234" as="targetPoint" />
            <Array as="points">
              <mxPoint x="-909" y="29" />
            </Array>
          </mxGeometry>
        </mxCell>
        <mxCell id="72QtoFlMRVsIfOhmQPBF-88" style="edgeStyle=orthogonalEdgeStyle;rounded=0;orthogonalLoop=1;jettySize=auto;html=1;fontSize=12;startSize=8;endSize=8;entryX=0;entryY=0.5;entryDx=0;entryDy=0;" parent="1" source="72QtoFlMRVsIfOhmQPBF-16" target="72QtoFlMRVsIfOhmQPBF-82" edge="1">
          <mxGeometry relative="1" as="geometry">
            <mxPoint x="-909" y="73.71431187220992" as="targetPoint" />
          </mxGeometry>
        </mxCell>
        <mxCell id="72QtoFlMRVsIfOhmQPBF-89" style="edgeStyle=orthogonalEdgeStyle;rounded=0;orthogonalLoop=1;jettySize=auto;html=1;fontSize=12;startSize=8;endSize=8;entryX=0;entryY=0.5;entryDx=0;entryDy=0;" parent="1" source="72QtoFlMRVsIfOhmQPBF-16" target="72QtoFlMRVsIfOhmQPBF-83" edge="1">
          <mxGeometry relative="1" as="geometry">
            <mxPoint x="-909" y="103.42858014787953" as="targetPoint" />
          </mxGeometry>
        </mxCell>
        <mxCell id="72QtoFlMRVsIfOhmQPBF-92" style="edgeStyle=orthogonalEdgeStyle;rounded=0;orthogonalLoop=1;jettySize=auto;html=1;fontSize=12;startSize=8;endSize=8;entryX=0;entryY=0.5;entryDx=0;entryDy=0;" parent="1" source="72QtoFlMRVsIfOhmQPBF-16" target="72QtoFlMRVsIfOhmQPBF-90" edge="1">
          <mxGeometry relative="1" as="geometry">
            <mxPoint x="-909" y="139" as="targetPoint" />
          </mxGeometry>
        </mxCell>
        <mxCell id="72QtoFlMRVsIfOhmQPBF-16" value="Employee" style="rounded=0;whiteSpace=wrap;html=1;" parent="1" vertex="1">
          <mxGeometry x="-969" y="-91" width="120" height="60" as="geometry" />
        </mxCell>
        <mxCell id="72QtoFlMRVsIfOhmQPBF-17" value="" style="ellipse;whiteSpace=wrap;html=1;aspect=fixed;" parent="1" vertex="1">
          <mxGeometry x="-530" y="-19" width="26" height="26" as="geometry" />
        </mxCell>
        <mxCell id="72QtoFlMRVsIfOhmQPBF-18" value="" style="ellipse;whiteSpace=wrap;html=1;aspect=fixed;" parent="1" vertex="1">
          <mxGeometry x="-530" y="18" width="26" height="26" as="geometry" />
        </mxCell>
        <mxCell id="72QtoFlMRVsIfOhmQPBF-19" value="" style="ellipse;whiteSpace=wrap;html=1;aspect=fixed;" parent="1" vertex="1">
          <mxGeometry x="-530" y="49.5" width="26" height="26" as="geometry" />
        </mxCell>
        <mxCell id="72QtoFlMRVsIfOhmQPBF-20" value="&lt;font style=&quot;font-size: 10px;&quot;&gt;Name&lt;/font&gt;" style="text;html=1;align=center;verticalAlign=middle;resizable=0;points=[];autosize=1;strokeColor=none;fillColor=none;fontSize=16;" parent="1" vertex="1">
          <mxGeometry x="-510.5" y="-21.5" width="45" height="31" as="geometry" />
        </mxCell>
        <mxCell id="72QtoFlMRVsIfOhmQPBF-22" value="&lt;font style=&quot;font-size: 10px;&quot;&gt;Address&lt;/font&gt;" style="text;html=1;align=center;verticalAlign=middle;resizable=0;points=[];autosize=1;strokeColor=none;fillColor=none;fontSize=16;" parent="1" vertex="1">
          <mxGeometry x="-510.5" y="13" width="55" height="31" as="geometry" />
        </mxCell>
        <mxCell id="72QtoFlMRVsIfOhmQPBF-23" value="&lt;font style=&quot;font-size: 11px;&quot;&gt;Phone&lt;/font&gt;" style="text;html=1;align=center;verticalAlign=middle;resizable=0;points=[];autosize=1;strokeColor=none;fillColor=none;fontSize=16;" parent="1" vertex="1">
          <mxGeometry x="-510.5" y="44" width="50" height="31" as="geometry" />
        </mxCell>
        <mxCell id="72QtoFlMRVsIfOhmQPBF-38" value="Contiene" style="rhombus;whiteSpace=wrap;html=1;rounded=0;" parent="1" vertex="1">
          <mxGeometry x="-387" y="-95" width="80" height="80" as="geometry" />
        </mxCell>
        <mxCell id="72QtoFlMRVsIfOhmQPBF-41" value="" style="endArrow=none;html=1;rounded=0;fontSize=12;startSize=8;endSize=8;curved=1;" parent="1" edge="1">
          <mxGeometry width="50" height="50" relative="1" as="geometry">
            <mxPoint x="-460.5" y="-31" as="sourcePoint" />
            <mxPoint x="-460.5" y="-87" as="targetPoint" />
          </mxGeometry>
        </mxCell>
        <mxCell id="72QtoFlMRVsIfOhmQPBF-42" value="Assume" style="rhombus;whiteSpace=wrap;html=1;rounded=0;" parent="1" vertex="1">
          <mxGeometry x="-785" y="-101" width="80" height="80" as="geometry" />
        </mxCell>
        <mxCell id="72QtoFlMRVsIfOhmQPBF-45" value="" style="endArrow=none;html=1;rounded=0;fontSize=12;startSize=8;endSize=8;curved=1;" parent="1" edge="1">
          <mxGeometry width="50" height="50" relative="1" as="geometry">
            <mxPoint x="-641" y="-31" as="sourcePoint" />
            <mxPoint x="-641" y="-91" as="targetPoint" />
          </mxGeometry>
        </mxCell>
        <mxCell id="72QtoFlMRVsIfOhmQPBF-46" value="Propone" style="rhombus;whiteSpace=wrap;html=1;rounded=0;" parent="1" vertex="1">
          <mxGeometry x="-170" y="27" width="80" height="80" as="geometry" />
        </mxCell>
        <mxCell id="72QtoFlMRVsIfOhmQPBF-49" value="" style="endArrow=none;html=1;rounded=0;fontSize=12;startSize=8;endSize=8;curved=1;" parent="1" edge="1">
          <mxGeometry width="50" height="50" relative="1" as="geometry">
            <mxPoint x="-165" y="-6.5" as="sourcePoint" />
            <mxPoint x="-95" y="-6.5" as="targetPoint" />
          </mxGeometry>
        </mxCell>
        <mxCell id="72QtoFlMRVsIfOhmQPBF-52" value="Programma" style="rhombus;whiteSpace=wrap;html=1;rounded=0;" parent="1" vertex="1">
          <mxGeometry x="-167" y="344" width="80" height="80" as="geometry" />
        </mxCell>
        <mxCell id="72QtoFlMRVsIfOhmQPBF-56" value="Contiene" style="rhombus;whiteSpace=wrap;html=1;rounded=0;" parent="1" vertex="1">
          <mxGeometry x="69" y="579.5" width="80" height="80" as="geometry" />
        </mxCell>
        <mxCell id="72QtoFlMRVsIfOhmQPBF-59" value="Vende" style="rhombus;whiteSpace=wrap;html=1;rounded=0;" parent="1" vertex="1">
          <mxGeometry x="59" y="150" width="80" height="80" as="geometry" />
        </mxCell>
        <mxCell id="72QtoFlMRVsIfOhmQPBF-65" value="Effettua" style="rhombus;whiteSpace=wrap;html=1;rounded=0;" parent="1" vertex="1">
          <mxGeometry x="298" y="470" width="80" height="80" as="geometry" />
        </mxCell>
        <mxCell id="72QtoFlMRVsIfOhmQPBF-69" value="Compra" style="rhombus;whiteSpace=wrap;html=1;" parent="1" vertex="1">
          <mxGeometry x="298" y="241" width="80" height="80" as="geometry" />
        </mxCell>
        <mxCell id="72QtoFlMRVsIfOhmQPBF-72" value="" style="endArrow=none;html=1;rounded=0;fontSize=12;startSize=8;endSize=8;curved=1;" parent="1" edge="1">
          <mxGeometry width="50" height="50" relative="1" as="geometry">
            <mxPoint x="-28" y="654" as="sourcePoint" />
            <mxPoint x="-28" y="591" as="targetPoint" />
          </mxGeometry>
        </mxCell>
        <mxCell id="72QtoFlMRVsIfOhmQPBF-73" value="" style="endArrow=none;html=1;rounded=0;fontSize=12;startSize=8;endSize=8;curved=1;" parent="1" edge="1">
          <mxGeometry width="50" height="50" relative="1" as="geometry">
            <mxPoint x="-154" y="568" as="sourcePoint" />
            <mxPoint x="-90" y="568" as="targetPoint" />
          </mxGeometry>
        </mxCell>
        <mxCell id="72QtoFlMRVsIfOhmQPBF-74" value="" style="endArrow=none;html=1;rounded=0;fontSize=12;startSize=8;endSize=8;curved=1;" parent="1" edge="1">
          <mxGeometry width="50" height="50" relative="1" as="geometry">
            <mxPoint x="-37" y="221" as="sourcePoint" />
            <mxPoint x="-37" y="161" as="targetPoint" />
          </mxGeometry>
        </mxCell>
        <mxCell id="72QtoFlMRVsIfOhmQPBF-75" value="" style="endArrow=none;html=1;rounded=0;fontSize=12;startSize=8;endSize=8;curved=1;" parent="1" edge="1">
          <mxGeometry width="50" height="50" relative="1" as="geometry">
            <mxPoint x="308" y="443" as="sourcePoint" />
            <mxPoint x="378" y="443" as="targetPoint" />
          </mxGeometry>
        </mxCell>
        <mxCell id="72QtoFlMRVsIfOhmQPBF-76" value="" style="endArrow=none;html=1;rounded=0;fontSize=12;startSize=8;endSize=8;curved=1;" parent="1" edge="1">
          <mxGeometry width="50" height="50" relative="1" as="geometry">
            <mxPoint x="293" y="354" as="sourcePoint" />
            <mxPoint x="388" y="354" as="targetPoint" />
          </mxGeometry>
        </mxCell>
        <mxCell id="72QtoFlMRVsIfOhmQPBF-77" value="" style="ellipse;whiteSpace=wrap;html=1;aspect=fixed;" parent="1" vertex="1">
          <mxGeometry x="-93" y="-177" width="26" height="26" as="geometry" />
        </mxCell>
        <mxCell id="72QtoFlMRVsIfOhmQPBF-78" value="" style="ellipse;whiteSpace=wrap;html=1;aspect=fixed;" parent="1" vertex="1">
          <mxGeometry x="-93" y="-145" width="26" height="26" as="geometry" />
        </mxCell>
        <mxCell id="72QtoFlMRVsIfOhmQPBF-79" value="" style="ellipse;whiteSpace=wrap;html=1;aspect=fixed;" parent="1" vertex="1">
          <mxGeometry x="-93" y="-215" width="26" height="26" as="geometry" />
        </mxCell>
        <mxCell id="72QtoFlMRVsIfOhmQPBF-80" value="Name" style="text;html=1;align=center;verticalAlign=middle;resizable=0;points=[];autosize=1;strokeColor=none;fillColor=none;fontSize=16;" parent="1" vertex="1">
          <mxGeometry x="-70" y="-217.5" width="61" height="31" as="geometry" />
        </mxCell>
        <mxCell id="72QtoFlMRVsIfOhmQPBF-81" value="" style="ellipse;whiteSpace=wrap;html=1;aspect=fixed;" parent="1" vertex="1">
          <mxGeometry x="-868" y="15.5" width="26" height="26" as="geometry" />
        </mxCell>
        <mxCell id="72QtoFlMRVsIfOhmQPBF-82" value="" style="ellipse;whiteSpace=wrap;html=1;aspect=fixed;" parent="1" vertex="1">
          <mxGeometry x="-868" y="52.5" width="26" height="26" as="geometry" />
        </mxCell>
        <mxCell id="72QtoFlMRVsIfOhmQPBF-83" value="" style="ellipse;whiteSpace=wrap;html=1;aspect=fixed;" parent="1" vertex="1">
          <mxGeometry x="-868" y="84" width="26" height="26" as="geometry" />
        </mxCell>
        <mxCell id="72QtoFlMRVsIfOhmQPBF-84" value="&lt;font style=&quot;font-size: 10px;&quot;&gt;Name&lt;/font&gt;" style="text;html=1;align=center;verticalAlign=middle;resizable=0;points=[];autosize=1;strokeColor=none;fillColor=none;fontSize=16;" parent="1" vertex="1">
          <mxGeometry x="-848.5" y="13" width="45" height="31" as="geometry" />
        </mxCell>
        <mxCell id="72QtoFlMRVsIfOhmQPBF-85" value="&lt;font style=&quot;font-size: 10px;&quot;&gt;LastName&lt;/font&gt;" style="text;html=1;align=center;verticalAlign=middle;resizable=0;points=[];autosize=1;strokeColor=none;fillColor=none;fontSize=16;" parent="1" vertex="1">
          <mxGeometry x="-848.5" y="47.5" width="64" height="31" as="geometry" />
        </mxCell>
        <mxCell id="72QtoFlMRVsIfOhmQPBF-86" value="&lt;font style=&quot;font-size: 11px;&quot;&gt;Position&lt;/font&gt;" style="text;html=1;align=center;verticalAlign=middle;resizable=0;points=[];autosize=1;strokeColor=none;fillColor=none;fontSize=16;" parent="1" vertex="1">
          <mxGeometry x="-849" y="78.5" width="57" height="31" as="geometry" />
        </mxCell>
        <mxCell id="72QtoFlMRVsIfOhmQPBF-90" value="" style="ellipse;whiteSpace=wrap;html=1;aspect=fixed;" parent="1" vertex="1">
          <mxGeometry x="-868" y="120.5" width="26" height="26" as="geometry" />
        </mxCell>
        <mxCell id="72QtoFlMRVsIfOhmQPBF-91" value="&lt;font style=&quot;font-size: 11px;&quot;&gt;HireDate&lt;/font&gt;" style="text;html=1;align=center;verticalAlign=middle;resizable=0;points=[];autosize=1;strokeColor=none;fillColor=none;fontSize=16;" parent="1" vertex="1">
          <mxGeometry x="-847" y="115.5" width="61" height="31" as="geometry" />
        </mxCell>
        <mxCell id="72QtoFlMRVsIfOhmQPBF-93" value="Capacity" style="text;html=1;align=center;verticalAlign=middle;resizable=0;points=[];autosize=1;strokeColor=none;fillColor=none;fontSize=16;" parent="1" vertex="1">
          <mxGeometry x="-73" y="-182" width="80" height="31" as="geometry" />
        </mxCell>
        <mxCell id="72QtoFlMRVsIfOhmQPBF-95" value="ScreenType" style="text;html=1;align=center;verticalAlign=middle;resizable=0;points=[];autosize=1;strokeColor=none;fillColor=none;fontSize=16;" parent="1" vertex="1">
          <mxGeometry x="-73" y="-147.5" width="103" height="31" as="geometry" />
        </mxCell>
        <mxCell id="72QtoFlMRVsIfOhmQPBF-100" value="" style="ellipse;whiteSpace=wrap;html=1;aspect=fixed;" parent="1" vertex="1">
          <mxGeometry x="-293" y="101" width="34" height="34" as="geometry" />
        </mxCell>
        <mxCell id="72QtoFlMRVsIfOhmQPBF-101" value="ShowDateTime" style="text;html=1;align=center;verticalAlign=middle;resizable=0;points=[];autosize=1;strokeColor=none;fillColor=none;fontSize=16;" parent="1" vertex="1">
          <mxGeometry x="-420" y="99" width="127" height="31" as="geometry" />
        </mxCell>
        <mxCell id="72QtoFlMRVsIfOhmQPBF-102" value="" style="ellipse;whiteSpace=wrap;html=1;aspect=fixed;" parent="1" vertex="1">
          <mxGeometry x="-293" y="144" width="34" height="34" as="geometry" />
        </mxCell>
        <mxCell id="72QtoFlMRVsIfOhmQPBF-103" value="Price" style="text;html=1;align=center;verticalAlign=middle;resizable=0;points=[];autosize=1;strokeColor=none;fillColor=none;fontSize=16;" parent="1" vertex="1">
          <mxGeometry x="-344" y="146.5" width="54" height="31" as="geometry" />
        </mxCell>
        <mxCell id="72QtoFlMRVsIfOhmQPBF-106" value="" style="ellipse;whiteSpace=wrap;html=1;aspect=fixed;" parent="1" vertex="1">
          <mxGeometry x="-104" y="719.5" width="26" height="26" as="geometry" />
        </mxCell>
        <mxCell id="72QtoFlMRVsIfOhmQPBF-107" value="" style="ellipse;whiteSpace=wrap;html=1;aspect=fixed;" parent="1" vertex="1">
          <mxGeometry x="-104" y="751.5" width="26" height="26" as="geometry" />
        </mxCell>
        <mxCell id="72QtoFlMRVsIfOhmQPBF-108" value="" style="ellipse;whiteSpace=wrap;html=1;aspect=fixed;" parent="1" vertex="1">
          <mxGeometry x="-104" y="681.5" width="26" height="26" as="geometry" />
        </mxCell>
        <mxCell id="72QtoFlMRVsIfOhmQPBF-109" value="Director" style="text;html=1;align=center;verticalAlign=middle;resizable=0;points=[];autosize=1;strokeColor=none;fillColor=none;fontSize=16;" parent="1" vertex="1">
          <mxGeometry x="-78" y="679" width="74" height="31" as="geometry" />
        </mxCell>
        <mxCell id="72QtoFlMRVsIfOhmQPBF-110" value="ReleaseDate" style="text;html=1;align=center;verticalAlign=middle;resizable=0;points=[];autosize=1;strokeColor=none;fillColor=none;fontSize=16;" parent="1" vertex="1">
          <mxGeometry x="-81" y="717" width="111" height="31" as="geometry" />
        </mxCell>
        <mxCell id="72QtoFlMRVsIfOhmQPBF-111" value="DurationMinutes" style="text;html=1;align=center;verticalAlign=middle;resizable=0;points=[];autosize=1;strokeColor=none;fillColor=none;fontSize=16;" parent="1" vertex="1">
          <mxGeometry x="-81" y="749" width="135" height="31" as="geometry" />
        </mxCell>
        <mxCell id="72QtoFlMRVsIfOhmQPBF-112" value="" style="ellipse;whiteSpace=wrap;html=1;aspect=fixed;" parent="1" vertex="1">
          <mxGeometry x="-104.5" y="788.5" width="26" height="26" as="geometry" />
        </mxCell>
        <mxCell id="72QtoFlMRVsIfOhmQPBF-113" value="Rating" style="text;html=1;align=center;verticalAlign=middle;resizable=0;points=[];autosize=1;strokeColor=none;fillColor=none;fontSize=16;" parent="1" vertex="1">
          <mxGeometry x="-78.5" y="786" width="64" height="31" as="geometry" />
        </mxCell>
        <mxCell id="72QtoFlMRVsIfOhmQPBF-118" value="" style="ellipse;whiteSpace=wrap;html=1;aspect=fixed;" parent="1" vertex="1">
          <mxGeometry x="374" y="717" width="26" height="26" as="geometry" />
        </mxCell>
        <mxCell id="72QtoFlMRVsIfOhmQPBF-120" value="" style="ellipse;whiteSpace=wrap;html=1;aspect=fixed;" parent="1" vertex="1">
          <mxGeometry x="374" y="679" width="26" height="26" as="geometry" />
        </mxCell>
        <mxCell id="72QtoFlMRVsIfOhmQPBF-121" value="ReviewText" style="text;html=1;align=center;verticalAlign=middle;resizable=0;points=[];autosize=1;strokeColor=none;fillColor=none;fontSize=16;" parent="1" vertex="1">
          <mxGeometry x="395" y="676.5" width="100" height="31" as="geometry" />
        </mxCell>
        <mxCell id="72QtoFlMRVsIfOhmQPBF-122" value="ReviewDate" style="text;html=1;align=center;verticalAlign=middle;resizable=0;points=[];autosize=1;strokeColor=none;fillColor=none;fontSize=16;" parent="1" vertex="1">
          <mxGeometry x="395" y="714.5" width="104" height="31" as="geometry" />
        </mxCell>
        <mxCell id="72QtoFlMRVsIfOhmQPBF-123" value="" style="ellipse;whiteSpace=wrap;html=1;aspect=fixed;" parent="1" vertex="1">
          <mxGeometry x="374" y="757.5" width="26" height="26" as="geometry" />
        </mxCell>
        <mxCell id="72QtoFlMRVsIfOhmQPBF-124" value="Rating" style="text;html=1;align=center;verticalAlign=middle;resizable=0;points=[];autosize=1;strokeColor=none;fillColor=none;fontSize=16;" parent="1" vertex="1">
          <mxGeometry x="400" y="755" width="64" height="31" as="geometry" />
        </mxCell>
        <mxCell id="72QtoFlMRVsIfOhmQPBF-131" value="FirstName" style="text;html=1;align=center;verticalAlign=middle;resizable=0;points=[];autosize=1;strokeColor=none;fillColor=none;fontSize=16;" parent="1" vertex="1">
          <mxGeometry x="503" y="367" width="92" height="31" as="geometry" />
        </mxCell>
        <mxCell id="72QtoFlMRVsIfOhmQPBF-132" value="LastName" style="text;html=1;align=center;verticalAlign=middle;resizable=0;points=[];autosize=1;strokeColor=none;fillColor=none;fontSize=16;" parent="1" vertex="1">
          <mxGeometry x="506" y="405" width="91" height="31" as="geometry" />
        </mxCell>
        <mxCell id="72QtoFlMRVsIfOhmQPBF-133" value="Email" style="text;html=1;align=center;verticalAlign=middle;resizable=0;points=[];autosize=1;strokeColor=none;fillColor=none;fontSize=16;" parent="1" vertex="1">
          <mxGeometry x="507" y="445.5" width="58" height="31" as="geometry" />
        </mxCell>
        <mxCell id="72QtoFlMRVsIfOhmQPBF-134" value="" style="ellipse;whiteSpace=wrap;html=1;aspect=fixed;" parent="1" vertex="1">
          <mxGeometry x="478" y="371" width="26" height="26" as="geometry" />
        </mxCell>
        <mxCell id="72QtoFlMRVsIfOhmQPBF-135" value="" style="ellipse;whiteSpace=wrap;html=1;aspect=fixed;" parent="1" vertex="1">
          <mxGeometry x="478" y="407.5" width="26" height="26" as="geometry" />
        </mxCell>
        <mxCell id="72QtoFlMRVsIfOhmQPBF-136" value="" style="ellipse;whiteSpace=wrap;html=1;aspect=fixed;" parent="1" vertex="1">
          <mxGeometry x="478" y="445.5" width="26" height="26" as="geometry" />
        </mxCell>
        <mxCell id="72QtoFlMRVsIfOhmQPBF-140" value="PhoneNumber" style="text;html=1;align=center;verticalAlign=middle;resizable=0;points=[];autosize=1;strokeColor=none;fillColor=none;fontSize=16;" parent="1" vertex="1">
          <mxGeometry x="499" y="484" width="121" height="31" as="geometry" />
        </mxCell>
        <mxCell id="72QtoFlMRVsIfOhmQPBF-141" value="" style="ellipse;whiteSpace=wrap;html=1;aspect=fixed;" parent="1" vertex="1">
          <mxGeometry x="478" y="481" width="26" height="26" as="geometry" />
        </mxCell>
        <mxCell id="72QtoFlMRVsIfOhmQPBF-143" value="SeatNumber" style="text;html=1;align=center;verticalAlign=middle;resizable=0;points=[];autosize=1;strokeColor=none;fillColor=none;fontSize=16;" parent="1" vertex="1">
          <mxGeometry x="411" y="51.5" width="108" height="31" as="geometry" />
        </mxCell>
        <mxCell id="72QtoFlMRVsIfOhmQPBF-144" value="PurchaseDateTime" style="text;html=1;align=center;verticalAlign=middle;resizable=0;points=[];autosize=1;strokeColor=none;fillColor=none;fontSize=16;" parent="1" vertex="1">
          <mxGeometry x="411" y="87.5" width="154" height="31" as="geometry" />
        </mxCell>
        <mxCell id="72QtoFlMRVsIfOhmQPBF-145" value="" style="ellipse;whiteSpace=wrap;html=1;aspect=fixed;" parent="1" vertex="1">
          <mxGeometry x="388" y="53.5" width="26" height="26" as="geometry" />
        </mxCell>
        <mxCell id="72QtoFlMRVsIfOhmQPBF-146" value="" style="ellipse;whiteSpace=wrap;html=1;aspect=fixed;" parent="1" vertex="1">
          <mxGeometry x="388" y="90" width="26" height="26" as="geometry" />
        </mxCell>
        <mxCell id="m66LLdsy6sWpOupjC70v-1" value="" style="endArrow=none;html=1;rounded=0;fontSize=12;startSize=8;endSize=8;curved=1;" edge="1" parent="1">
          <mxGeometry width="50" height="50" relative="1" as="geometry">
            <mxPoint x="-218" y="-25" as="sourcePoint" />
            <mxPoint x="-218" y="-81" as="targetPoint" />
            <Array as="points">
              <mxPoint x="-218" y="-54" />
            </Array>
          </mxGeometry>
        </mxCell>
      </root>
    </mxGraphModel>
  </diagram>
</mxfile>
